<?xml version="1.0" encoding="UTF-8"?>
<svg version="1.1" xmlns="http://www.w3.org/2000/svg" width="512" height="512">
<path d="M0 0 C168.96 0 337.92 0 512 0 C512 168.96 512 337.92 512 512 C343.04 512 174.08 512 0 512 C0 343.04 0 174.08 0 0 Z " fill="#497270" transform="translate(0,0)"/>
<path d="M0 0 C64.02 0 128.04 0 194 0 C193.9375 49.0625 193.9375 49.0625 193.84741211 64.53149414 C193.86392208 69.12319467 193.86392208 69.12319467 193.89234924 73.71482849 C193.89926783 75.75369823 193.88852994 77.79267582 193.86366272 79.83140564 C193.21831625 91.38117415 193.21831625 91.38117415 196.97380066 101.85093689 C199.26324952 103.65206503 201.34637693 104.82989964 204 106 C205.819464 107.47059207 207.63314208 108.9484121 209.4375 110.4375 C212.95102433 113.32955136 216.48893154 116.18259415 220.0625 119 C223.55683856 121.77883114 226.89198083 124.67573399 230.1875 127.6875 C235.82680886 132.78389403 240.36701796 136.54837189 247.625 139 C252.2736977 140.63435747 255.15965031 141.78251106 258 146 C261.31451357 154.90270764 263.08114963 164.04414275 264.6875 173.375 C266.83082809 185.35927987 269.27256207 197.26122461 271.97988892 209.13092041 C272.3630719 210.81238139 272.74286959 212.49461804 273.11898804 214.17767334 C276.95394601 231.2873539 282.31226164 244.82210978 292.99609375 258.98046875 C293.50382324 259.65803223 294.01155273 260.3355957 294.53466797 261.03369141 C295.53979927 262.36840556 296.55552758 263.69521609 297.58251953 265.01318359 C298.79959809 266.61928269 299.90997324 268.3051029 301 270 C299.55962471 274.32112588 296.25322725 275.8579812 292.625 278.3125 C291.06781131 279.38889235 289.51186767 280.46708761 287.95703125 281.546875 C287.14314941 282.11083984 286.32926758 282.67480469 285.49072266 283.25585938 C281.38618011 286.13008521 277.34578216 289.08942293 273.3125 292.0625 C272.52190186 292.64443115 271.73130371 293.2263623 270.91674805 293.82592773 C265.24055598 298.0271899 259.66232112 302.34101866 254.18676758 306.80102539 C250.21099465 310 250.21099465 310 248 310 C246.81420898 308.61401367 246.81420898 308.61401367 245.49609375 306.66796875 C245.0074585 305.95688965 244.51882324 305.24581055 244.01538086 304.51318359 C243.49468018 303.74570801 242.97397949 302.97823242 242.4375 302.1875 C232.08193585 287.30456673 222.6441141 278.21187911 206.39013672 269.92700195 C201.85414329 267.58688893 198.25441488 265.03886777 194 262 C194 269.59 194 277.18 194 285 C133.61 285 73.22 285 11 285 C10.34 286.98 9.68 288.96 9 291 C0.51819932 303.92312164 -9.25331457 312.03807091 -22.99365234 319.05712891 C-23.83750488 319.49589355 -24.68135742 319.9346582 -25.55078125 320.38671875 C-26.31044189 320.77045654 -27.07010254 321.15419434 -27.8527832 321.54956055 C-38.37738336 328.65890103 -44.34236839 346.41253322 -49.875 357.625 C-50.5438859 358.97284735 -51.2131556 360.3205043 -51.8828125 361.66796875 C-53.09855067 364.11555085 -54.31165128 366.56437118 -55.52294922 369.01416016 C-56.67631733 371.34567949 -57.83415233 373.6747065 -59 376 C-63.65092021 373.42005558 -67.99741462 370.68685364 -72.3125 367.5625 C-72.90442139 367.13565918 -73.49634277 366.70881836 -74.10620117 366.26904297 C-76.0732973 364.84944723 -78.03677166 363.42493896 -80 362 C-82.18201489 360.42014501 -84.36467474 358.84118841 -86.54785156 357.26293945 C-88.05854519 356.17030862 -89.56831076 355.0763935 -91.07714844 353.98120117 C-94.98732282 351.14895997 -98.91723593 348.35237703 -102.890625 345.609375 C-103.6746167 345.06587402 -104.4586084 344.52237305 -105.26635742 343.96240234 C-106.76716353 342.92484346 -108.27237992 341.89362756 -109.7824707 340.86962891 C-110.45366943 340.40476074 -111.12486816 339.93989258 -111.81640625 339.4609375 C-112.40881104 339.05665527 -113.00121582 338.65237305 -113.61157227 338.23583984 C-115 337 -115 337 -116 334 C-114.91113281 331.60595703 -114.91113281 331.60595703 -113.203125 328.7578125 C-112.57897705 327.70150635 -111.9548291 326.6452002 -111.31176758 325.55688477 C-110.97529205 324.99720001 -110.63881653 324.43751526 -110.29214478 323.86087036 C-108.53431521 320.93290458 -106.81343756 317.98336184 -105.08984375 315.03515625 C-104.5675544 314.14403389 -104.5675544 314.14403389 -104.03471375 313.23490906 C-100.82780424 307.74602927 -97.77473476 302.18658851 -94.8125 296.5625 C-94.3803418 295.75506348 -93.94818359 294.94762695 -93.50292969 294.11572266 C-88.80651479 285.12262731 -85.65626961 276.34820122 -84.5625 266.25 C-84.31785721 264.31084861 -84.07029024 262.37206463 -83.8203125 260.43359375 C-83.68915039 259.39831543 -83.55798828 258.36303711 -83.42285156 257.29638672 C-81.10701355 239.24301212 -78.03982277 221.85911233 -73 204.375 C-72.79075897 203.64632721 -72.58151794 202.91765442 -72.36593628 202.16690063 C-66.84518416 183.10981619 -61.16792763 168.44528509 -44 157 C-45.51374725 153.42723096 -47.61894388 151.14319629 -50.375 148.4375 C-51.14585938 147.67308594 -51.91671875 146.90867188 -52.7109375 146.12109375 C-54.92340496 143.98461445 -54.92340496 143.98461445 -57.2890625 142.34765625 C-57.85367188 141.90292969 -58.41828125 141.45820313 -59 141 C-59 140.34 -59 139.68 -59 139 C-59.57744965 138.74655823 -60.15489929 138.49311646 -60.74984741 138.23199463 C-63.26403164 136.85543844 -64.96509891 135.30251722 -67.00244141 133.28808594 C-67.77649323 132.52679382 -68.55054504 131.76550171 -69.34805298 130.98114014 C-70.58729019 129.74524139 -70.58729019 129.74524139 -71.8515625 128.484375 C-72.70680511 127.63578918 -73.56204773 126.78720337 -74.44320679 125.91290283 C-76.24960837 124.11662374 -78.0533054 122.31762137 -79.85449219 120.51611328 C-82.61098595 117.76399182 -85.38305589 115.0282481 -88.15625 112.29296875 C-89.90983383 110.54525323 -91.66247005 108.79658631 -93.4140625 107.046875 C-94.2442691 106.23103943 -95.07447571 105.41520386 -95.92984009 104.574646 C-100.73538946 99.73058163 -103.81768021 96.19335523 -104.125 89.125 C-104.08375 88.42375 -104.0425 87.7225 -104 87 C-100.58735092 85.7202566 -99.02390086 85.99128668 -95.56787109 87.2512207 C-88.99235134 90.7051037 -84.05249798 96.47860841 -78.9140625 101.73046875 C-77.76539004 102.88915677 -76.61574582 104.04688217 -75.46517944 105.20368958 C-72.45532108 108.23437452 -69.45725985 111.27645346 -66.46203613 114.32159424 C-61.65055846 119.20868587 -56.81996727 124.0769091 -51.99171066 128.94741249 C-50.30790204 130.64893106 -48.6283727 132.35457991 -46.94961548 134.06108093 C-45.92430328 135.09960581 -44.89894568 136.13808587 -43.87353516 137.17651367 C-42.53072983 138.54074715 -42.53072983 138.54074715 -41.16079712 139.93254089 C-39.17653116 142.03474018 -39.17653116 142.03474018 -37 143 C-36.63648438 141.51113281 -36.63648438 141.51113281 -36.265625 139.9921875 C-34.56612775 133.07861557 -32.82310574 126.17785218 -30.9375 119.3125 C-30.63714844 118.21550781 -30.33679688 117.11851562 -30.02734375 115.98828125 C-28.66027896 112.01183803 -26.97434976 108.97434976 -24 106 C-20.12185174 105.47414939 -17.52391392 105.20792616 -14.0234375 107.02734375 C-9.12538508 110.78946487 -6.89617832 114.93420041 -6 121 C-5.69857589 126.33441353 -5.82320244 131.66333292 -6 137 C-4.02 137 -2.04 137 0 137 C0 91.79 0 46.58 0 0 Z " fill="#F6F8F4" transform="translate(169,109)"/>
<path d="M0 0 C2.9010018 1.96623455 4.79828681 4.52203704 6.859375 7.3046875 C7.29258057 7.87823975 7.72578613 8.45179199 8.17211914 9.04272461 C11.77617533 13.86376916 15.13773924 18.82406003 18.41796875 23.87109375 C19.90025983 26.11335855 21.49662028 28.27934787 23.109375 30.4296875 C23.109375 67.0596875 23.109375 103.6896875 23.109375 141.4296875 C-145.850625 141.4296875 -314.810625 141.4296875 -488.890625 141.4296875 C-488.890625 116.19553208 -488.890625 116.19553208 -483.140625 108.7421875 C-481.94220963 107.0094594 -480.74430452 105.27637828 -479.546875 103.54296875 C-478.93585938 102.69686035 -478.32484375 101.85075195 -477.6953125 100.97900391 C-474.81839561 96.91504745 -472.25198831 92.66682546 -469.640625 88.4296875 C-466.11215105 82.83816418 -462.5362365 77.27900671 -458.828125 71.8046875 C-458.13589844 70.78117187 -457.44367188 69.75765625 -456.73046875 68.703125 C-454.890625 66.4296875 -454.890625 66.4296875 -451.890625 65.4296875 C-442.41386271 68.76148452 -434.10506295 75.16894423 -425.99365234 80.93554688 C-423.90937452 82.4163665 -421.81730364 83.88545652 -419.72265625 85.3515625 C-411.49712646 91.11909694 -403.33332889 96.96949102 -395.21728516 102.89013672 C-390.19537024 106.53937162 -385.07867783 110.02104577 -379.890625 113.4296875 C-378.39687823 111.18906734 -377.20157778 109.15526453 -376.03051758 106.75952148 C-375.67286819 106.03123642 -375.31521881 105.30295135 -374.94673157 104.55259705 C-374.56341171 103.76824783 -374.18009186 102.98389862 -373.78515625 102.17578125 C-372.95805488 100.4991651 -372.13056814 98.82273902 -371.30273438 97.14648438 C-370.0067882 94.51773237 -368.71325165 91.88791139 -367.42651367 89.25463867 C-354.00366549 61.81542383 -354.00366549 61.81542383 -340.9140625 55.33691406 C-326.15311019 48.02815632 -316.28566367 38.21976484 -308.890625 23.4296875 C-248.500625 23.4296875 -188.110625 23.4296875 -125.890625 23.4296875 C-125.890625 15.8396875 -125.890625 8.2496875 -125.890625 0.4296875 C-122.29049511 2.22975245 -118.81059945 4.16834014 -115.328125 6.1796875 C-110.07437066 9.20884821 -104.77844351 12.12364387 -99.390625 14.91015625 C-93.60697403 18.42553161 -89.5629187 22.7290296 -85.515625 28.0546875 C-85.04664795 28.66280273 -84.5776709 29.27091797 -84.09448242 29.89746094 C-82.68390985 31.7346867 -81.28533934 33.5804033 -79.890625 35.4296875 C-79.4682959 35.98688477 -79.0459668 36.54408203 -78.61083984 37.11816406 C-71.890625 46.01871528 -71.890625 46.01871528 -71.890625 48.4296875 C-70.95605469 47.72585938 -70.02148438 47.02203125 -69.05859375 46.296875 C-58.38741656 38.27074935 -47.66178598 30.32108176 -36.890625 22.4296875 C-35.71717529 21.56778809 -35.71717529 21.56778809 -34.52001953 20.68847656 C-4.47748052 -1.35064495 -4.47748052 -1.35064495 0 0 Z " fill="#49726F" transform="translate(488.890625,370.5703125)"/>
<path d="M0 0 C7.32588447 0.86186876 12.45129279 3.94599564 17.53637695 9.09814453 C18.04137222 9.60416199 18.54636749 10.11017944 19.06666565 10.63153076 C20.7167612 12.28944682 22.3523427 13.96093619 23.98828125 15.6328125 C25.13838487 16.79292787 26.28945758 17.95208324 27.44145203 19.11032104 C30.45952906 22.14925522 33.46581751 25.19957807 36.46929932 28.25292969 C41.29073473 33.14988214 46.1311872 38.02806009 50.96935081 42.90847397 C52.65758516 44.61442545 54.34154307 46.32450515 56.0247345 48.03543091 C57.05330657 49.07721651 58.08192445 50.11895687 59.1105957 51.16064453 C60.00881546 52.07314972 60.90703522 52.98565491 61.83247375 53.92581177 C63.82203253 56.03404989 63.82203253 56.03404989 66 57 C66.36351562 55.51113281 66.36351562 55.51113281 66.734375 53.9921875 C68.43387225 47.07861557 70.17689426 40.17785218 72.0625 33.3125 C72.36285156 32.21550781 72.66320312 31.11851562 72.97265625 29.98828125 C74.33972104 26.01183803 76.02565024 22.97434976 79 20 C82.87814826 19.47414939 85.47608608 19.20792616 88.9765625 21.02734375 C93.87461492 24.78946487 96.10382168 28.93420041 97 35 C97.30142411 40.33441353 97.17679756 45.66333292 97 51 C98.98 51 100.96 51 103 51 C103 63.54 103 76.08 103 89 C101 89 101 89 98.5 86.625 C97.675 85.75875 96.85 84.8925 96 84 C95.34 83.34 94.68 82.68 94 82 C91.96333304 88.96745868 91.96333304 88.96745868 92 96 C95.94339397 100.03510081 97.27138007 100.85427601 103 102 C103 133.68 103 165.36 103 198 C167.02 198 231.04 198 297 198 C297 198.33 297 198.66 297 199 C236.61 199 176.22 199 114 199 C113.01 201.97 113.01 201.97 112 205 C103.51819932 217.92312164 93.74668543 226.03807091 80.00634766 233.05712891 C79.16249512 233.49589355 78.31864258 233.9346582 77.44921875 234.38671875 C76.68955811 234.77045654 75.92989746 235.15419434 75.1472168 235.54956055 C64.62261664 242.65890103 58.65763161 260.41253322 53.125 271.625 C52.4561141 272.97284735 51.7868444 274.3205043 51.1171875 275.66796875 C49.90144933 278.11555085 48.68834872 280.56437118 47.47705078 283.01416016 C46.32368267 285.34567949 45.16584767 287.6747065 44 290 C39.34907979 287.42005558 35.00258538 284.68685364 30.6875 281.5625 C30.09557861 281.13565918 29.50365723 280.70881836 28.89379883 280.26904297 C26.9267027 278.84944723 24.96322834 277.42493896 23 276 C20.81798511 274.42014501 18.63532526 272.84118841 16.45214844 271.26293945 C14.94145481 270.17030862 13.43168924 269.0763935 11.92285156 267.98120117 C8.01267718 265.14895997 4.08276407 262.35237703 0.109375 259.609375 C-0.6746167 259.06587402 -1.4586084 258.52237305 -2.26635742 257.96240234 C-3.76716353 256.92484346 -5.27237992 255.89362756 -6.7824707 254.86962891 C-7.45366943 254.40476074 -8.12486816 253.93989258 -8.81640625 253.4609375 C-9.40881104 253.05665527 -10.00121582 252.65237305 -10.61157227 252.23583984 C-12 251 -12 251 -13 248 C-11.91113281 245.60595703 -11.91113281 245.60595703 -10.203125 242.7578125 C-9.57897705 241.70150635 -8.9548291 240.6452002 -8.31176758 239.55688477 C-7.97529205 238.99720001 -7.63881653 238.43751526 -7.29214478 237.86087036 C-5.53431521 234.93290458 -3.81343756 231.98336184 -2.08984375 229.03515625 C-1.5675544 228.14403389 -1.5675544 228.14403389 -1.03471375 227.23490906 C2.17219576 221.74602927 5.22526524 216.18658851 8.1875 210.5625 C8.6196582 209.75506348 9.05181641 208.94762695 9.49707031 208.11572266 C14.19348521 199.12262731 17.34373039 190.34820122 18.4375 180.25 C18.68214279 178.31084861 18.92970976 176.37206463 19.1796875 174.43359375 C19.31084961 173.39831543 19.44201172 172.36303711 19.57714844 171.29638672 C21.89298645 153.24301212 24.96017723 135.85911233 30 118.375 C30.20924103 117.64632721 30.41848206 116.91765442 30.63406372 116.16690063 C36.15481584 97.10981619 41.83207237 82.44528509 59 71 C57.48625275 67.42723096 55.38105612 65.14319629 52.625 62.4375 C51.85414062 61.67308594 51.08328125 60.90867188 50.2890625 60.12109375 C48.07659504 57.98461445 48.07659504 57.98461445 45.7109375 56.34765625 C45.14632812 55.90292969 44.58171875 55.45820313 44 55 C44 54.34 44 53.68 44 53 C43.42255035 52.74655823 42.84510071 52.49311646 42.25015259 52.23199463 C39.73596836 50.85543844 38.03490109 49.30251722 35.99755859 47.28808594 C35.22350677 46.52679382 34.44945496 45.76550171 33.65194702 44.98114014 C32.82578888 44.15720764 31.99963074 43.33327515 31.1484375 42.484375 C30.29319489 41.63578918 29.43795227 40.78720337 28.55679321 39.91290283 C26.75039163 38.11662374 24.9466946 36.31762137 23.14550781 34.51611328 C20.38901405 31.76399182 17.61694411 29.0282481 14.84375 26.29296875 C13.09016617 24.54525323 11.33752995 22.79658631 9.5859375 21.046875 C8.7557309 20.23103943 7.92552429 19.41520386 7.07015991 18.574646 C2.2675266 13.73352106 -0.71906675 10.21399873 -1.1875 3.1875 C-1 1 -1 1 0 0 Z " fill="#FABA94" transform="translate(66,195)"/>
<path d="M0 0 C7.7904099 4.4516628 7.7904099 4.4516628 11.0625 7.5625 C14.85755969 11.04723113 18.79893897 14.23232501 22.875 17.375 C27.40622499 20.87795265 31.73086581 24.48661186 35.9375 28.375 C41.66828848 33.64699173 46.20154363 37.48592278 53.625 40 C58.2736977 41.63435747 61.15965031 42.78251106 64 47 C67.31451357 55.90270764 69.08114963 65.04414275 70.6875 74.375 C72.83082809 86.35927987 75.27256207 98.26122461 77.97988892 110.13092041 C78.3630719 111.81238139 78.74286959 113.49461804 79.11898804 115.17767334 C82.95394601 132.2873539 88.31226164 145.82210978 98.99609375 159.98046875 C99.75768799 160.99681396 99.75768799 160.99681396 100.53466797 162.03369141 C101.53979927 163.36840556 102.55552758 164.69521609 103.58251953 166.01318359 C104.79959809 167.61928269 105.90997324 169.3051029 107 171 C105.55962471 175.32112588 102.25322725 176.8579812 98.625 179.3125 C97.06781131 180.38889235 95.51186767 181.46708761 93.95703125 182.546875 C93.14314941 183.11083984 92.32926758 183.67480469 91.49072266 184.25585938 C87.38618011 187.13008521 83.34578216 190.08942293 79.3125 193.0625 C78.52190186 193.64443115 77.73130371 194.2263623 76.91674805 194.82592773 C71.24055598 199.0271899 65.66232112 203.34101866 60.18676758 207.80102539 C56.21099465 211 56.21099465 211 54 211 C52.81420898 209.61401367 52.81420898 209.61401367 51.49609375 207.66796875 C51.0074585 206.95688965 50.51882324 206.24581055 50.01538086 205.51318359 C49.49468018 204.74570801 48.97397949 203.97823242 48.4375 203.1875 C39.11028177 189.78249718 31.08790844 180.70307912 16.38720703 173.07739258 C-1.77968401 163.62087291 -10.06368937 150.90346272 -19 133 C-19.36834961 132.27748047 -19.73669922 131.55496094 -20.11621094 130.81054688 C-24.89378737 121.34063178 -27.76380656 112.47042486 -29.50878906 102.01293945 C-32.32767291 85.5589768 -39.00073036 70.10898386 -45.17993164 54.67944336 C-53.50536231 33.88742746 -53.50536231 33.88742746 -52 25 C-49.33491812 21.41879622 -47.62142892 21.10357149 -43.25 20.375 C-37.76366029 20.73526621 -33.9317259 23.29446476 -30 27 C-25.90418427 32.12139241 -22.25182218 37.43645984 -19.3671875 43.34375 C-18.27478932 46.10868987 -18.27478932 46.10868987 -16 47 C-15.53567555 48.87007737 -15.07706309 50.74175924 -14.64746094 52.62011719 C-13.45985669 56.98541364 -11.50707717 61.02256381 -9.625 65.125 C-9.04492188 66.42630859 -9.04492188 66.42630859 -8.453125 67.75390625 C-6.2592228 72.59079802 -4.00347432 76.49478853 -1 81 C-0.67 54.27 -0.34 27.54 0 0 Z " fill="#FCBA94" transform="translate(363,208)"/>
<path d="M0 0 C2.9010018 1.96623455 4.79828681 4.52203704 6.859375 7.3046875 C7.29258057 7.87823975 7.72578613 8.45179199 8.17211914 9.04272461 C11.77617533 13.86376916 15.13773924 18.82406003 18.41796875 23.87109375 C20.00365886 26.38013024 20.00365886 26.38013024 21.69254017 28.29616165 C23.36488871 30.81445014 23.480305 32.12897998 23.47013855 35.12469482 C23.47426254 36.06416458 23.47838654 37.00363434 23.4826355 37.97157288 C23.47184967 38.99512375 23.46106384 40.01867462 23.44995117 41.07324219 C23.45060829 42.69808784 23.45060829 42.69808784 23.45127869 44.35575867 C23.44918789 47.93787632 23.42584243 51.51952655 23.40234375 55.1015625 C23.39674885 57.5844904 23.39247825 60.06742161 23.38948059 62.550354 C23.37919473 68.41872773 23.35554813 74.28692876 23.32543212 80.15523171 C23.28270786 88.66528586 23.26700201 97.17539718 23.24800873 105.68553162 C23.21891221 117.60038924 23.1614303 129.51480837 23.109375 141.4296875 C0.339375 141.4296875 -22.430625 141.4296875 -45.890625 141.4296875 C-50.840625 132.1896875 -55.790625 122.9496875 -60.890625 113.4296875 C-65.73381031 104.85013969 -65.73381031 104.85013969 -70.58203125 96.2734375 C-71.10941895 95.34015625 -71.63680664 94.406875 -72.18017578 93.4453125 C-73.40206146 91.29105444 -74.6303152 89.14040326 -75.86279297 86.9921875 C-77.56612764 84.02200416 -79.24570045 81.03935209 -80.91183472 78.04815674 C-81.87205523 76.33776489 -82.85490266 74.640139 -83.83813477 72.94287109 C-84.69942993 71.38560303 -84.69942993 71.38560303 -85.578125 69.796875 C-86.09761719 68.88019043 -86.61710937 67.96350586 -87.15234375 67.01904297 C-87.890625 64.4296875 -87.890625 64.4296875 -86.69604492 61.7487793 C-84.48335979 58.90654859 -81.97618699 56.63647516 -79.203125 54.3671875 C-78.63352051 53.89385986 -78.06391602 53.42053223 -77.47705078 52.93286133 C-70.47567889 47.17586282 -63.18753587 41.80274855 -55.890625 36.4296875 C-54.35392076 35.29199874 -52.81746861 34.15396942 -51.28125 33.015625 C-46.49454397 29.47305818 -41.69436607 25.94910521 -36.890625 22.4296875 C-36.1083252 21.85508789 -35.32602539 21.28048828 -34.52001953 20.68847656 C-4.47748052 -1.35064495 -4.47748052 -1.35064495 0 0 Z " fill="#262731" transform="translate(488.890625,370.5703125)"/>
<path d="M0 0 C18.77646667 4.85598276 35.80359671 20.93128754 51.25756836 32.13696289 C55.69741357 35.35252067 60.16180352 38.5290381 64.65185547 41.67407227 C72.59666078 47.23902686 80.46221672 52.88859725 88 59 C88.63164063 59.48339844 89.26328125 59.96679688 89.9140625 60.46484375 C90.27242188 60.97144531 90.63078125 61.47804688 91 62 C90 67 90 67 85 76 C45.4 76 5.8 76 -35 76 C-35 50.76584458 -35 50.76584458 -29.25 43.3125 C-28.05158463 41.5797719 -26.85367952 39.84669078 -25.65625 38.11328125 C-25.04523437 37.26717285 -24.43421875 36.42106445 -23.8046875 35.54931641 C-20.9278062 31.48541023 -18.3607249 27.2374826 -15.75 23 C-3.44886998 3.44886998 -3.44886998 3.44886998 0 0 Z " fill="#252730" transform="translate(35,436)"/>
<path d="M0 0 C64.02 0 128.04 0 194 0 C194 5.94 194 11.88 194 18 C129.98 18 65.96 18 0 18 C0 12.06 0 6.12 0 0 Z " fill="#D5D9D8" transform="translate(169,109)"/>
<path d="M0 0 C2.31 0 4.62 0 7 0 C7 12.54 7 25.08 7 38 C5 38 5 38 2.5 35.625 C1.2625 34.325625 1.2625 34.325625 0 33 C-0.66 32.34 -1.32 31.68 -2 31 C-4.03666696 37.96745868 -4.03666696 37.96745868 -4 45 C-0.66017369 48.33982631 1.38639466 49.84659867 6 51 C6 74.43 6 97.86 6 122 C2.37180514 118.37180514 -0.79441627 114.93828859 -4 111 C-4.17015625 112.01578125 -4.3403125 113.0315625 -4.515625 114.078125 C-7.30471909 130.15020617 -11.41986983 148.82680263 -25.62890625 158.85546875 C-26.41136719 159.23316406 -27.19382813 159.61085938 -28 160 C-28.66 159.67 -29.32 159.34 -30 159 C-29.34773437 158.46632813 -28.69546875 157.93265625 -28.0234375 157.3828125 C-18.21212331 149.0185948 -13.37507748 140.38039787 -10 128 C-9.82049805 127.38753418 -9.64099609 126.77506836 -9.45605469 126.14404297 C-7.55503234 118.90631402 -7.70562491 111.6902228 -7.75 104.25 C-7.74226563 102.96867187 -7.73453125 101.68734375 -7.7265625 100.3671875 C-7.74148174 93.01200177 -8.30037702 86.02743433 -9.53710938 78.77880859 C-11.70484823 65.76551551 -8.91048832 52.93098067 -6.57324219 40.14160156 C-5.64558772 35.05767581 -4.76167271 29.96620388 -3.875 24.875 C-3.70806641 23.92423584 -3.54113281 22.97347168 -3.36914062 21.99389648 C-2.09306179 14.68142666 -0.96944386 7.36011983 0 0 Z " fill="#F39E79" transform="translate(162,246)"/>
<path d="M0 0 C7.33184506 0.86257001 12.50502177 4.00974971 17.67578125 9.07885742 C18.19534897 9.5833844 18.71491669 10.08791138 19.25022888 10.60772705 C20.94837168 12.26310243 22.63122204 13.9329784 24.3125 15.60546875 C25.49294799 16.77050808 26.67361559 17.93532492 27.85449219 19.09992981 C30.31930312 21.53636422 32.77553184 23.98110399 35.22705078 26.4309082 C38.36730268 29.56596253 41.53645135 32.66996044 44.71379089 35.76735973 C47.15863266 38.16020842 49.58285579 40.57315179 52.00180054 42.99215126 C53.16192802 44.14572094 54.32940964 45.29194413 55.50430298 46.43047142 C57.14482216 48.02446323 58.75433727 49.6445608 60.359375 51.27416992 C61.28202148 52.18889572 62.20466797 53.10362152 63.15527344 54.04606628 C65.77243528 58.23688933 65.06460814 60.23955446 64 65 C62.9375 68 62.9375 68 62 70 C58.18008091 68.43489426 55.84183518 66.01263683 53 63.0625 C49.53512594 59.46703201 49.53512594 59.46703201 45.6875 56.30859375 C45.130625 55.87675781 44.57375 55.44492188 44 55 C44 54.34 44 53.68 44 53 C43.42255035 52.74655823 42.84510071 52.49311646 42.25015259 52.23199463 C39.73596836 50.85543844 38.03490109 49.30251722 35.99755859 47.28808594 C35.22350677 46.52679382 34.44945496 45.76550171 33.65194702 44.98114014 C32.82578888 44.15720764 31.99963074 43.33327515 31.1484375 42.484375 C29.86557358 41.21149628 29.86557358 41.21149628 28.55679321 39.91290283 C26.75039163 38.11662374 24.9466946 36.31762137 23.14550781 34.51611328 C20.38901405 31.76399182 17.61694411 29.0282481 14.84375 26.29296875 C13.09016617 24.54525323 11.33752995 22.79658631 9.5859375 21.046875 C8.7557309 20.23103943 7.92552429 19.41520386 7.07015991 18.574646 C2.2675266 13.73352106 -0.71906675 10.21399873 -1.1875 3.1875 C-1 1 -1 1 0 0 Z " fill="#D2D7D5" transform="translate(66,195)"/>
<path d="M0 0 C1.30066406 -0.00128906 2.60132813 -0.00257813 3.94140625 -0.00390625 C4.96258545 -0.00076416 4.96258545 -0.00076416 6.00439453 0.00244141 C8.08503515 0.0077901 10.16545989 0.0024957 12.24609375 -0.00390625 C14.19708984 -0.00197266 14.19708984 -0.00197266 16.1875 0 C17.39083984 0.00112793 18.59417969 0.00225586 19.83398438 0.00341797 C22.59375 0.1328125 22.59375 0.1328125 23.59375 1.1328125 C23.68123207 3.05948757 23.70072334 4.98933111 23.69140625 6.91796875 C23.68890869 7.97121338 23.68641113 9.02445801 23.68383789 10.10961914 C23.67473389 11.45789795 23.66562988 12.80617676 23.65625 14.1953125 C23.635625 18.4646875 23.615 22.7340625 23.59375 27.1328125 C13.36375 27.1328125 3.13375 27.1328125 -7.40625 27.1328125 C-7.426875 22.8634375 -7.4475 18.5940625 -7.46875 14.1953125 C-7.477854 12.84703369 -7.48695801 11.49875488 -7.49633789 10.10961914 C-7.49883545 9.05637451 -7.50133301 8.00312988 -7.50390625 6.91796875 C-7.50914307 5.83394775 -7.51437988 4.74992676 -7.51977539 3.63305664 C-7.29750605 -1.26212684 -4.22894074 0.00396392 0 0 Z " fill="#D3D6D6" transform="translate(193.40625,349.8671875)"/>
<path d="M0 0 C10.23 0 20.46 0 31 0 C31.020625 4.269375 31.04125 8.53875 31.0625 12.9375 C31.071604 14.28577881 31.08070801 15.63405762 31.09008789 17.02319336 C31.09258545 18.07643799 31.09508301 19.12968262 31.09765625 20.21484375 C31.10551147 21.84087524 31.10551147 21.84087524 31.11352539 23.49975586 C31 26 31 26 30 27 C27.86646826 27.10003289 25.72962458 27.13081048 23.59375 27.1328125 C22.29308594 27.13410156 20.99242187 27.13539063 19.65234375 27.13671875 C18.97155762 27.13462402 18.29077148 27.1325293 17.58935547 27.13037109 C15.50871485 27.1250224 13.42829011 27.1303168 11.34765625 27.13671875 C9.39666016 27.13478516 9.39666016 27.13478516 7.40625 27.1328125 C6.20291016 27.13168457 4.99957031 27.13055664 3.75976562 27.12939453 C1 27 1 27 0 26 C-0.08748207 24.07332493 -0.10697334 22.14348139 -0.09765625 20.21484375 C-0.09515869 19.16159912 -0.09266113 18.10835449 -0.09008789 17.02319336 C-0.08098389 15.67491455 -0.07187988 14.32663574 -0.0625 12.9375 C-0.041875 8.668125 -0.02125 4.39875 0 0 Z " fill="#D2D5D6" transform="translate(186,315)"/>
<path d="M0 0 C2.57598281 0.14762079 4.26744439 -0.21979466 6.7265625 -0.84375 C11.85063054 1.00963631 14.6468915 3.70783634 17.7265625 8.15625 C19.51417035 12.92320427 19.7265625 15.93497518 19.7265625 21.15625 C6.5265625 21.15625 -6.6734375 21.15625 -20.2734375 21.15625 C-20.2734375 10.51108871 -20.2734375 10.51108871 -17.2734375 6.15625 C-11.25732388 0.22369352 -8.3868906 -0.99467166 0 0 Z " fill="#314F5F" transform="translate(210.2734375,166.84375)"/>
<path d="M0 0 C53.46 0 106.92 0 162 0 C162 0.99 162 1.98 162 3 C108.54 3 55.08 3 0 3 C0 2.01 0 1.02 0 0 Z " fill="#8AACB1" transform="translate(185,207)"/>
<path d="M0 0 C53.46 0 106.92 0 162 0 C162 0.99 162 1.98 162 3 C108.87 3 55.74 3 1 3 C0.67 2.01 0.34 1.02 0 0 Z " fill="#8EAFB1" transform="translate(185,199)"/>
<path d="M0 0 C53.46 0 106.92 0 162 0 C162 0.99 162 1.98 162 3 C158.54210946 3.19635974 155.08367803 3.38058252 151.625 3.5625 C150.64015625 3.61857422 149.6553125 3.67464844 148.640625 3.73242188 C147.22910156 3.80493164 147.22910156 3.80493164 145.7890625 3.87890625 C144.91975098 3.9260376 144.05043945 3.97316895 143.15478516 4.02172852 C141 4 141 4 139 3 C137.16278048 2.90646493 135.32211165 2.87808819 133.48251343 2.87974548 C131.72403831 2.87768349 131.72403831 2.87768349 129.93003845 2.87557983 C128.63747635 2.87917511 127.34491425 2.88277039 126.01318359 2.88647461 C124.6434479 2.88675657 123.27371205 2.88659858 121.90397644 2.8860321 C118.1789939 2.88574447 114.45404337 2.89163572 110.72906828 2.89860606 C106.83863708 2.90484524 102.9482052 2.90544385 99.05776978 2.90663147 C91.68776648 2.90974312 84.31777798 2.91795427 76.94778121 2.92798096 C68.55853735 2.93914726 60.1692928 2.94465385 51.78004336 2.94967639 C34.52002035 2.96013701 17.26001174 2.97773324 0 3 C0 2.01 0 1.02 0 0 Z " fill="#CCD4D1" transform="translate(185,227)"/>
<path d="M0 0 C2 3 2 3 2 5 C-41.23 5 -84.46 5 -129 5 C-129 4.01 -129 3.02 -129 2 C-86.43 2 -43.86 2 0 2 C0 1.34 0 0.68 0 0 Z " fill="#CED6D3" transform="translate(314,253)"/>
<path d="M0 0 C0.763125 0.309375 1.52625 0.61875 2.3125 0.9375 C4.18789677 1.67893593 6.08684652 2.36228217 8 3 C9.1875 5.0625 9.1875 5.0625 10 7 C11.32 6.34 12.64 5.68 14 5 C13.69835937 6.1240625 13.39671875 7.248125 13.0859375 8.40625 C11.72238379 13.85087921 11.01688122 19.36997436 10.3203125 24.93359375 C9.59777014 29.99960096 8.33462735 33.87454636 5.72021484 38.29101562 C4.69757782 40.19244986 4.69757782 40.19244986 6 43 C9.3 43 12.6 43 16 43 C13.62959692 45.37040308 12.93697247 45.34465793 9.6875 45.4375 C5.87448479 45.36995867 5.15472736 45.12249249 2 42.625 C0 40 0 40 -1 38 C-0.34 38 0.32 38 1 38 C0.67 37.34 0.34 36.68 0 36 C-0.08675538 33.30106819 -0.11557897 30.62830769 -0.09765625 27.9296875 C-0.0962413 27.13345978 -0.09482635 26.33723206 -0.09336853 25.51687622 C-0.08776345 22.9695462 -0.07521014 20.42230353 -0.0625 17.875 C-0.05748565 16.14974085 -0.05292263 14.42448033 -0.04882812 12.69921875 C-0.03779237 8.46611209 -0.02052436 4.23307086 0 0 Z " fill="#EE9B76" transform="translate(363,253)"/>
<path d="M0 0 C40.59 0 81.18 0 123 0 C123 0.99 123 1.98 123 3 C82.41 3 41.82 3 0 3 C0 2.01 0 1.02 0 0 Z " fill="#D2D9D7" transform="translate(224,374)"/>
<path d="M0 0 C40.59 0 81.18 0 123 0 C123 0.99 123 1.98 123 3 C82.41 3 41.82 3 0 3 C0 2.01 0 1.02 0 0 Z " fill="#CFD5D3" transform="translate(224,351)"/>
<path d="M0 0 C0.99 1.98 0.99 1.98 2 4 C-37.93 4 -77.86 4 -119 4 C-119 3.01 -119 2.02 -119 1 C-60.095 0.505 -60.095 0.505 0 0 Z " fill="#D3D8D6" transform="translate(343,338)"/>
<path d="M0 0 C37.95 0 75.9 0 115 0 C115.495 1.485 115.495 1.485 116 3 C77.72 3 39.44 3 0 3 C0 2.01 0 1.02 0 0 Z " fill="#CFD6D4" transform="translate(224,327)"/>
<path d="M0 0 C2.71958894 4.07938341 2.389108 7.2195303 2 12 C0.46564684 19.31768429 0.46564684 19.31768429 -3 22 C-5.19140625 22.36328125 -5.19140625 22.36328125 -7.5625 22.3125 C-8.34753906 22.30863281 -9.13257813 22.30476563 -9.94140625 22.30078125 C-12 22 -12 22 -14 20 C-14.55828114 13.74725127 -13.72029959 7.71465922 -11 2 C-7.29842447 -1.54030357 -4.90593009 -1.2719078 0 0 Z " fill="#FACFB2" transform="translate(151,220)"/>
<path d="M0 0 C31.68 0 63.36 0 96 0 C95.67 0.99 95.34 1.98 95 3 C63.65 3 32.3 3 0 3 C0 2.01 0 1.02 0 0 Z " fill="#CCD4D2" transform="translate(224,266)"/>
<path d="M0 0 C30.69 0 61.38 0 93 0 C93 0.99 93 1.98 93 3 C62.31 3 31.62 3 0 3 C0 2.01 0 1.02 0 0 Z " fill="#D0D8D6" transform="translate(254,174)"/>
<path d="M0 0 C30.36 0 60.72 0 92 0 C92 0.99 92 1.98 92 3 C61.64 3 31.28 3 0 3 C0 2.01 0 1.02 0 0 Z " fill="#D2DBD8" transform="translate(255,184)"/>
<path d="M0 0 C30.36 0 60.72 0 92 0 C92 0.99 92 1.98 92 3 C61.64 3 31.28 3 0 3 C0 2.01 0 1.02 0 0 Z " fill="#D1D8D5" transform="translate(255,164)"/>
<path d="M0 0 C30.36 0 60.72 0 92 0 C92 0.99 92 1.98 92 3 C61.64 3 31.28 3 0 3 C0 2.01 0 1.02 0 0 Z " fill="#CFD8D5" transform="translate(255,154)"/>
<path d="M0 0 C3.75 0.375 3.75 0.375 6.5 2.5625 C11.70412844 9.06766055 11.70412844 9.06766055 11.875 13.9375 C10.70523798 17.51177285 10.43384504 18.01275545 7.4375 19.875 C3.75 21.375 3.75 21.375 1.6875 21.21484375 C-0.86705371 20.10752712 -1.56438425 18.83287227 -2.9375 16.4375 C-3.35386719 15.72722656 -3.77023437 15.01695312 -4.19921875 14.28515625 C-6.08932498 10.84923823 -6.27630073 9.65846134 -5.375 5.8125 C-5.19195312 5.00683594 -5.00890625 4.20117188 -4.8203125 3.37109375 C-3.88629787 0.10204253 -3.59816834 0.41517327 0 0 Z " fill="#FAC8A7" transform="translate(317.25,231.625)"/>
<path d="M0 0 C1.21236328 0.02707031 1.21236328 0.02707031 2.44921875 0.0546875 C3.37154297 0.08949219 3.37154297 0.08949219 4.3125 0.125 C4.580625 0.723125 4.84875 1.32125 5.125 1.9375 C6.1719913 4.16332938 6.1719913 4.16332938 7.9140625 5.54296875 C10.42435239 8.38282184 9.7034483 11.7694434 9.6171875 15.3828125 C9.23940572 18.78284853 8.16794226 21.26452652 6.3125 24.125 C5.6525 24.125 4.9925 24.125 4.3125 24.125 C4.7765625 22.76375 4.7765625 22.76375 5.25 21.375 C5.7759375 19.76625 5.7759375 19.76625 6.3125 18.125 C6.580625 17.403125 6.84875 16.68125 7.125 15.9375 C7.53055814 14.03498421 7.53055814 14.03498421 6.1015625 12.53125 C3.86384387 10.77234453 2.69095445 10.75076744 -0.125 10.8125 C-0.88683594 10.81636719 -1.64867187 10.82023438 -2.43359375 10.82421875 C-4.88279127 11.1510614 -6.55450917 11.90545399 -8.6875 13.125 C-7.94499403 17.20878283 -6.85826699 21.14439223 -5.6875 25.125 C-8.6875 24.125 -8.6875 24.125 -10.375 21.125 C-12.09186529 16.82389476 -11.96686157 12.68790556 -11.6875 8.125 C-11.0275 7.795 -10.3675 7.465 -9.6875 7.125 C-9.378125 6.320625 -9.06875 5.51625 -8.75 4.6875 C-6.92564936 0.28759552 -4.37286347 -0.12674967 0 0 Z " fill="#232B30" transform="translate(210.6875,138.875)"/>
<path d="M0 0 C1.14662109 -0.02513672 1.14662109 -0.02513672 2.31640625 -0.05078125 C4.97551595 0.40464638 5.80801758 1.19763983 7.4375 3.3125 C8.4375 6.3125 8.4375 6.3125 7 9.3125 C6.484375 10.3025 5.96875 11.2925 5.4375 12.3125 C5.4375 13.3025 5.4375 14.2925 5.4375 15.3125 C4.7775 15.3125 4.1175 15.3125 3.4375 15.3125 C3.1075 16.6325 2.7775 17.9525 2.4375 19.3125 C-0.4375 19.4375 -0.4375 19.4375 -3.5625 19.3125 C-5.91132224 16.96367776 -6.59753024 15.04126333 -7.75 11.9375 C-8.11480469 10.98101562 -8.47960937 10.02453125 -8.85546875 9.0390625 C-9.58857012 6.21196441 -9.83608947 4.92883312 -8.5625 2.3125 C-5.76842881 0.37814303 -3.35422018 0.0170265 0 0 Z " fill="#F0AE8C" transform="translate(210.5625,148.6875)"/>
<path d="M0 0 C1.65 0 3.3 0 5 0 C5 12.54 5 25.08 5 38 C4.34 37.67 3.68 37.34 3 37 C3.495 32.545 3.495 32.545 4 28 C3.030625 27.855625 2.06125 27.71125 1.0625 27.5625 C-2 27 -2 27 -3 26 C-2.93381582 24.05960032 -2.79477783 22.12159067 -2.625 20.1875 C-2.52445313 19.02089844 -2.42390625 17.85429687 -2.3203125 16.65234375 C-2.21460938 15.44707031 -2.10890625 14.24179687 -2 13 C-1.91492188 11.84628906 -1.82984375 10.69257813 -1.7421875 9.50390625 C-1.66226563 8.43011719 -1.58234375 7.35632813 -1.5 6.25 C-1.4278125 5.26515625 -1.355625 4.2803125 -1.28125 3.265625 C-1 1 -1 1 0 0 Z " fill="#FBB990" transform="translate(164,246)"/>
<path d="M0 0 C1.33897583 0.95043374 2.67105427 1.91059147 4 2.875 C5.11375 3.67550781 5.11375 3.67550781 6.25 4.4921875 C6.8275 4.98976563 7.405 5.48734375 8 6 C8 6.66 8 7.32 8 8 C8.66 8 9.32 8 10 8 C10 12.29 10 16.58 10 21 C6.02997799 20.76646929 3.42485833 20.25668524 0 18.1875 C-3.09762844 13.25065467 -2.00004305 8.57166841 -1 3 C-0.67 2.01 -0.34 1.02 0 0 Z " fill="#CDD4D6" transform="translate(159,276)"/>
<path d="M0 0 C3.11141288 1.6437653 5.28893717 3.03036886 7.375 5.875 C8.68075892 10.31458033 8.4914727 13.07166267 6.3125 17.1875 C3.93773614 20.07572631 2.46855933 21.6287091 -1 23 C-5.32322204 23 -7.65028021 22.20724136 -11.375 20 C-14.3299098 16.62296022 -15.1359254 14.69217003 -15.37890625 10.2890625 C-14.70014251 6.18848979 -12.08461771 3.62387735 -9 1 C-5.89046621 -0.5547669 -3.43733239 -0.28644437 0 0 Z M-9.9375 4.0625 C-12.20884143 6.90738737 -12.20884143 6.90738737 -12.8125 10.5 C-11.90347921 14.41578184 -11.50914786 14.78022697 -8.3125 16.875 C-3.88505013 19.33826381 -3.88505013 19.33826381 1 20 C3.97791641 18.10614087 3.97791641 18.10614087 6 15 C6.69151325 10.69725091 6.51557405 8.79054688 4.125 5.125 C1.4126761 2.4126761 0.53758847 2.06085907 -3.3125 1.625 C-7.08956386 1.70554308 -7.08956386 1.70554308 -9.9375 4.0625 Z " fill="#527F79" transform="translate(101,92)"/>
<path d="M0 0 C0.33 0 0.66 0 1 0 C1.04125 0.9075 1.0825 1.815 1.125 2.75 C1.72464389 6.27994174 1.72464389 6.27994174 5.0625 8.375 C6.031875 8.91125 7.00125 9.4475 8 10 C6.44499019 13.81684226 3.96404505 16.19195732 1 19 C-2.59075147 17.66629231 -5.84621398 16.19012918 -9 14 C-9.33 13.01 -9.66 12.02 -10 11 C-9.52949219 10.62488281 -9.05898437 10.24976563 -8.57421875 9.86328125 C-4.90675044 6.84881972 -2.2531912 4.25602783 0 0 Z " fill="#507C78" transform="translate(135,130)"/>
<path d="M0 0 C15.18 0 30.36 0 46 0 C46 0.99 46 1.98 46 3 C30.49 3 14.98 3 -1 3 C-0.67 2.01 -0.34 1.02 0 0 Z " fill="#D2D7D6" transform="translate(225,315)"/>
<path d="M0 0 C0.3403125 0.99 0.3403125 0.99 0.6875 2 C1.82568815 4.60157293 3.04466726 6.60505423 4.625 8.9375 C6.20013359 11.45865977 7.05354731 13.20595121 7.8125 16.125 C6.68610439 20.11070753 4.53489157 21.52204009 1.1796875 23.80859375 C-1.5241883 25.28651869 -3.92983852 25.84649193 -7 26 C-7.33 26.99 -7.66 27.98 -8 29 C-8.70088156 27.25531628 -9.38524009 25.50398839 -10.0625 23.75 C-10.44535156 22.77546875 -10.82820313 21.8009375 -11.22265625 20.796875 C-12 18 -12 18 -11 14 C-9.35 16.97 -7.7 19.94 -6 23 C-2.26930717 22.25386143 0.57404607 21.46826597 4 20 C4.6556849 13.70542497 2.96051545 9.9206404 -1 5 C-3.95664519 3.5216774 -6.74229737 3.93967217 -10 4 C-10.66 6.97 -11.32 9.94 -12 13 C-12.33 13 -12.66 13 -13 13 C-13.77046549 4.98715891 -13.77046549 4.98715891 -11 1.4375 C-7.02032585 -0.4694272 -4.37958988 -0.29692135 0 0 Z " fill="#F9AD82" transform="translate(324,229)"/>
<path d="M0 0 C0.66 0.33 1.32 0.66 2 1 C1.855625 2.21816406 1.71125 3.43632812 1.5625 4.69140625 C1.37479204 6.31508014 1.1873037 7.93877943 1 9.5625 C0.90460938 10.36236328 0.80921875 11.16222656 0.7109375 11.98632812 C0.17285824 16.69452167 -0.10176703 21.26147265 0 26 C1.98 26.66 3.96 27.32 6 28 C6 30.97 6 33.94 6 37 C3.36 35.02 0.72 33.04 -2 31 C-3.56788252 37.98564588 -3.56788252 37.98564588 -5 45 C-5.33 45 -5.66 45 -6 45 C-6.23399616 38.40130818 -5.34000881 32.35129696 -4.125 25.875 C-3.75617844 23.84013925 -3.38898787 21.80498219 -3.0234375 19.76953125 C-2.84651367 18.78678223 -2.66958984 17.8040332 -2.48730469 16.79150391 C-1.5138473 11.21509522 -0.73918135 5.61194259 0 0 Z " fill="#E39572" transform="translate(162,246)"/>
<path d="M0 0 C6.6 0 13.2 0 20 0 C20 1.98 20 3.96 20 6 C16.85418577 6.02888514 13.70840531 6.04675923 10.5625 6.0625 C9.21575195 6.07506836 9.21575195 6.07506836 7.84179688 6.08789062 C6.56079102 6.09272461 6.56079102 6.09272461 5.25390625 6.09765625 C4.46314697 6.10289307 3.6723877 6.10812988 2.85766602 6.11352539 C1 6 1 6 0 5 C0 3.35 0 1.7 0 0 Z " fill="#A8ADAE" transform="translate(334,116)"/>
<path d="M0 0 C0.33 0 0.66 0 1 0 C1.47478062 21.02223069 -1.93586708 41.20650496 -17 57 C-19.62890625 58.85546875 -19.62890625 58.85546875 -22 60 C-22.66 59.67 -23.32 59.34 -24 59 C-23.34773437 58.46632813 -22.69546875 57.93265625 -22.0234375 57.3828125 C-5.89258716 43.63114363 -2.1933811 24.70921857 -0.3125 4.4375 C-0.20045228 2.95890944 -0.09269539 1.47992983 0 0 Z " fill="#E0946E" transform="translate(156,346)"/>
<path d="M0 0 C0.66 0.33 1.32 0.66 2 1 C0.35 2.98 -1.3 4.96 -3 7 C-1.02 9.64 0.96 12.28 3 15 C2.67 15.66 2.34 16.32 2 17 C1.51789062 16.4946875 1.03578125 15.989375 0.5390625 15.46875 C-0.09257813 14.8190625 -0.72421875 14.169375 -1.375 13.5 C-2.31472656 12.52546875 -2.31472656 12.52546875 -3.2734375 11.53125 C-4.86475907 9.77882569 -4.86475907 9.77882569 -7 10 C-8.57840572 11.55705194 -8.57840572 11.55705194 -10.125 13.5 C-10.66382813 14.1496875 -11.20265625 14.799375 -11.7578125 15.46875 C-12.37269531 16.22671875 -12.37269531 16.22671875 -13 17 C-13.66 16.67 -14.32 16.34 -15 16 C-13.02 13.03 -11.04 10.06 -9 7 C-10.98 5.35 -12.96 3.7 -15 2 C-14.34 1.67 -13.68 1.34 -13 1 C-11.9275 1.556875 -10.855 2.11375 -9.75 2.6875 C-7.89375 3.3371875 -7.89375 3.3371875 -6 4 C-2.5583853 2.34610858 -2.5583853 2.34610858 0 0 Z " fill="#557F7A" transform="translate(48,354)"/>
<path d="M0 0 C4.82360189 -0.19294408 8.49646738 0.24252386 13 2 C12.67 2.99 12.34 3.98 12 5 C10.06318839 5.08107583 8.1254066 5.13922475 6.1875 5.1875 C5.10855469 5.22230469 4.02960938 5.25710938 2.91796875 5.29296875 C0 5 0 5 -1.88671875 3.48828125 C-2.43779297 2.75158203 -2.43779297 2.75158203 -3 2 C-2.01 2 -1.02 2 0 2 C0 1.34 0 0.68 0 0 Z " fill="#EDA77E" transform="translate(137,261)"/>
<path d="M0 0 C0.66 0 1.32 0 2 0 C2.66 0.99 3.32 1.98 4 3 C4.99 3.33 5.98 3.66 7 4 C5.79618552 6.49361571 4.54571278 8.68143083 3 11 C0.5625 10.1875 0.5625 10.1875 -2 9 C-3 6 -3 6 -1.5625 2.8125 C-1.046875 1.884375 -0.53125 0.95625 0 0 Z " fill="#4E7C77" transform="translate(401,189)"/>
<path d="M0 0 C0.33 0.99 0.66 1.98 1 3 C-0.24556092 3.81928886 -1.49666635 4.63015186 -2.75 5.4375 C-3.44609375 5.88996094 -4.1421875 6.34242188 -4.859375 6.80859375 C-6.92957014 7.9608009 -8.68696324 8.54676982 -11 9 C-10.01 7.68 -9.02 6.36 -8 5 C-10.475 6.485 -10.475 6.485 -13 8 C-11.62087597 4.59863711 -10.37388141 3.30394435 -7.0625 1.75 C-6.37285156 1.41484375 -5.68320312 1.0796875 -4.97265625 0.734375 C-3 0 -3 0 0 0 Z " fill="#E8A479" transform="translate(338,263)"/>
<path d="M0 0 C0.33 0.66 0.66 1.32 1 2 C-2.37026983 10.20587437 -7.7936453 19.03877771 -16 23 C-16.66 22.67 -17.32 22.34 -18 22 C-17.02160156 21.19949219 -17.02160156 21.19949219 -16.0234375 20.3828125 C-9.87463188 15.14091037 -5.79155484 10.09635601 -2 3 C-1.34 2.01 -0.68 1.02 0 0 Z " fill="#DB8F65" transform="translate(150,383)"/>
<path d="M0 0 C1.67542976 0.28604898 3.34385343 0.61781233 5 1 C4.67 2.65 4.34 4.3 4 6 C2.0625 6.5625 2.0625 6.5625 0 7 C-1 6 -1 6 -1.125 3.5 C-1 1 -1 1 0 0 Z " fill="#DEE2DD" transform="translate(66,195)"/>
<path d="M0 0 C2.95749791 3.46741134 5.07848152 6.86873527 7 11 C6.01 12.32 5.02 13.64 4 15 C3.32532438 13.25307205 2.66055844 11.50231475 2 9.75 C1.62875 8.77546875 1.2575 7.8009375 0.875 6.796875 C0 4 0 4 0 0 Z " fill="#F7AF85" transform="translate(312,243)"/>
<path d="M0 0 C0.33 0.66 0.66 1.32 1 2 C2.88764903 2.68472665 2.88764903 2.68472665 5.0625 3.125 C5.79597656 3.29257812 6.52945313 3.46015625 7.28515625 3.6328125 C7.85105469 3.75398438 8.41695312 3.87515625 9 4 C9 4.99 9 5.98 9 7 C6.03 6.505 6.03 6.505 3 6 C3 5.34 3 4.68 3 4 C2.01 4 1.02 4 0 4 C0 2.68 0 1.36 0 0 Z " fill="#E88564" transform="translate(159,270)"/>
<path d="M0 0 C2.9719385 1.12451727 5.33440687 2.22293791 8 4 C7.67 4.66 7.34 5.32 7 6 C6.21625 5.649375 5.4325 5.29875 4.625 4.9375 C3.75875 4.628125 2.8925 4.31875 2 4 C1.01 4.495 1.01 4.495 0 5 C0 3.35 0 1.7 0 0 Z " fill="#3D6863" transform="translate(364,372)"/>
<path d="M0 0 C1.98 0.99 1.98 0.99 4 2 C3.34 3.98 2.68 5.96 2 8 C1.34 8 0.68 8 0 8 C0 5.36 0 2.72 0 0 Z " fill="#141F24" transform="translate(199,148)"/>
<path d="M0 0 C1 2 1 2 0.44140625 3.9453125 C0.15136719 4.66460937 -0.13867188 5.38390625 -0.4375 6.125 C-0.72496094 6.84945313 -1.01242187 7.57390625 -1.30859375 8.3203125 C-1.53675781 8.87460937 -1.76492188 9.42890625 -2 10 C-3.125 6.25 -3.125 6.25 -2 4 C-2.66 4 -3.32 4 -4 4 C-3 2 -3 2 0 0 Z " fill="#E69772" transform="translate(376,258)"/>
</svg>
