<?xml version="1.0" encoding="UTF-8"?>
<svg version="1.1" xmlns="http://www.w3.org/2000/svg" width="512" height="512">
<path d="M0 0 C168.96 0 337.92 0 512 0 C512 168.96 512 337.92 512 512 C343.04 512 174.08 512 0 512 C0 343.04 0 174.08 0 0 Z " fill="#649290" transform="translate(0,0)"/>
<path d="M0 0 C68.31 0 136.62 0 207 0 C207 75.57 207 151.14 207 229 C204.03 229 201.06 229 198 229 C198 247.15 198 265.3 198 284 C136.62 284 75.24 284 12 284 C11.67 293.24 11.34 302.48 11 312 C-2.2 312 -15.4 312 -29 312 C-28.33267019 307.32869132 -27.6025447 302.85027151 -26.625 298.25390625 C-26.23054687 296.37928711 -26.23054687 296.37928711 -25.828125 294.46679688 C-25.27683451 291.86767025 -24.72475341 289.26871119 -24.171875 286.66992188 C-22.23539114 277.4573847 -20.81457816 268.73625943 -20.875 259.3125 C-20.87910889 258.52214355 -20.88321777 257.73178711 -20.88745117 256.91748047 C-20.99179098 245.86194845 -22.22055675 235.15451839 -23.90673828 224.24291992 C-24.84212003 218.1675749 -25.62606964 212.13840419 -26 206 C-26.06662842 205.16718506 -26.13325684 204.33437012 -26.2019043 203.47631836 C-26.55001173 195.97290086 -24.72894604 191.11688819 -21.125 184.625 C-20.11339099 182.71616361 -19.1043431 180.80596807 -18.09765625 178.89453125 C-17.32446045 177.44361084 -17.32446045 177.44361084 -16.53564453 175.96337891 C-13.59299031 170.28485157 -10.97059225 164.44682375 -8.35009766 158.61376953 C-7.96772949 157.7886084 -7.58536133 156.96344727 -7.19140625 156.11328125 C-6.86342041 155.38923096 -6.53543457 154.66518066 -6.19750977 153.91918945 C-5 152 -5 152 -2.95759201 150.75613689 C-0.74076025 149.12539637 -0.74076025 149.12539637 -0.49219131 146.30386829 C-0.48850414 145.20785644 -0.48481697 144.11184458 -0.48101807 142.98262024 C-0.46711155 141.72740476 -0.45320503 140.47218927 -0.43887711 139.17893696 C-0.44360318 137.77985324 -0.44869171 136.3807707 -0.45410156 134.98168945 C-0.44530571 133.48947918 -0.43476018 131.99727835 -0.42260361 130.50509167 C-0.39485391 126.50441414 -0.39109276 122.50404813 -0.39224243 118.50328827 C-0.38970301 114.75090427 -0.36560784 110.99878059 -0.34326172 107.24645996 C-0.29047856 96.26855618 -0.27236381 85.29050789 -0.25 74.3125 C-0.1675 49.789375 -0.085 25.26625 0 0 Z " fill="#F8FAFA" transform="translate(162,110)"/>
<path d="M0 0 C68.31 0 136.62 0 207 0 C207 75.57 207 151.14 207 229 C204.03 229 201.06 229 198 229 C198 159.37 198 89.74 198 18 C135.63 18 73.26 18 9 18 C9.33 75.75 9.66 133.5 10 193 C11.32 186.07 12.64 179.14 14 172 C16.6778589 160.64587828 16.6778589 160.64587828 20 158 C22 158.0625 22 158.0625 24 159 C29.66281264 165.08228024 28.41210524 173.96773723 28.15820312 181.74267578 C27.83106767 186.41041413 26.69182629 190.8890545 25.67578125 195.44921875 C24.20701487 203.16660974 24.69641442 210.55040462 26 218.25 C28.87146077 236.78964889 29.16834936 255.27017984 18.375 271.125 C17.59898437 272.17945313 16.82296875 273.23390625 16.0234375 274.3203125 C11.16548378 282.03053204 11.64716207 292.3770592 11.375 301.1875 C11.189375 306.5396875 11.189375 306.5396875 11 312 C-2.2 312 -15.4 312 -29 312 C-28.33267019 307.32869132 -27.6025447 302.85027151 -26.625 298.25390625 C-26.23054687 296.37928711 -26.23054687 296.37928711 -25.828125 294.46679688 C-25.27683451 291.86767025 -24.72475341 289.26871119 -24.171875 286.66992188 C-22.23539114 277.4573847 -20.81457816 268.73625943 -20.875 259.3125 C-20.87910889 258.52214355 -20.88321777 257.73178711 -20.88745117 256.91748047 C-20.99179098 245.86194845 -22.22055675 235.15451839 -23.90673828 224.24291992 C-24.84212003 218.1675749 -25.62606964 212.13840419 -26 206 C-26.06662842 205.16718506 -26.13325684 204.33437012 -26.2019043 203.47631836 C-26.55001173 195.97290086 -24.72894604 191.11688819 -21.125 184.625 C-20.11339099 182.71616361 -19.1043431 180.80596807 -18.09765625 178.89453125 C-17.32446045 177.44361084 -17.32446045 177.44361084 -16.53564453 175.96337891 C-13.59299031 170.28485157 -10.97059225 164.44682375 -8.35009766 158.61376953 C-7.96772949 157.7886084 -7.58536133 156.96344727 -7.19140625 156.11328125 C-6.86342041 155.38923096 -6.53543457 154.66518066 -6.19750977 153.91918945 C-5 152 -5 152 -2.95759201 150.75613689 C-0.74076025 149.12539637 -0.74076025 149.12539637 -0.49219131 146.30386829 C-0.48850414 145.20785644 -0.48481697 144.11184458 -0.48101807 142.98262024 C-0.46711155 141.72740476 -0.45320503 140.47218927 -0.43887711 139.17893696 C-0.44360318 137.77985324 -0.44869171 136.3807707 -0.45410156 134.98168945 C-0.44530571 133.48947918 -0.43476018 131.99727835 -0.42260361 130.50509167 C-0.39485391 126.50441414 -0.39109276 122.50404813 -0.39224243 118.50328827 C-0.38970301 114.75090427 -0.36560784 110.99878059 -0.34326172 107.24645996 C-0.29047856 96.26855618 -0.27236381 85.29050789 -0.25 74.3125 C-0.1675 49.789375 -0.085 25.26625 0 0 Z " fill="#F8B493" transform="translate(162,110)"/>
<path d="M0 0 C3.0625 1.4375 3.0625 1.4375 5 4 C5.39854677 7.04678518 5.29353436 9.94724271 5 13 C4.34 13 3.68 13 3 13 C2.87625 14.093125 2.7525 15.18625 2.625 16.3125 C2 20 2 20 0 23 C0.886875 23.2475 1.77375 23.495 2.6875 23.75 C6.76839555 25.28996058 9.73105738 26.80726716 11.9765625 30.6875 C14.50080679 36.5380849 14 40.15082156 14 47 C2.12 47 -9.76 47 -22 47 C-21 33 -21 33 -18 28 C-16.02734375 26.41796875 -16.02734375 26.41796875 -13.9375 25.1875 C-13.24527344 24.76855469 -12.55304688 24.34960938 -11.83984375 23.91796875 C-10 23 -10 23 -8 23 C-8.3609375 22.47792969 -8.721875 21.95585937 -9.09375 21.41796875 C-12.51781424 15.98702241 -13.55729452 11.7792463 -13.56640625 5.3828125 C-13 3 -13 3 -11.2421875 1.20703125 C-7.52127302 -0.79603944 -4.11092538 -0.62907399 0 0 Z " fill="#2C5360" transform="translate(214,160)"/>
<path d="M0 0 C13.53 0 27.06 0 41 0 C41 16.17 41 32.34 41 49 C40.34 49 39.68 49 39 49 C38.89042969 48.04738281 38.78085938 47.09476563 38.66796875 46.11328125 C38.50941406 44.85902344 38.35085937 43.60476562 38.1875 42.3125 C38.03667969 41.07113281 37.88585937 39.82976562 37.73046875 38.55078125 C36.78482404 33.95403773 35.63097141 31.14083492 31.73828125 28.41796875 C30.93777344 28.01191406 30.13726562 27.60585937 29.3125 27.1875 C27.889375 26.465625 26.46625 25.74375 25 25 C25.99 21.7 26.98 18.4 28 15 C28.66 15 29.32 15 30 15 C29.87356231 9.12120644 29.87356231 9.12120644 27.5 3.9375 C23.73006422 2.52377408 19.97722221 2.43601085 16 3 C15.01 3.66 14.02 4.32 13 5 C11.69792052 12.0734588 13.04369012 17.18916987 17 23 C17 23.66 17 24.32 17 25 C16.38511719 25.30292969 15.77023438 25.60585937 15.13671875 25.91796875 C14.32847656 26.33691406 13.52023438 26.75585938 12.6875 27.1875 C11.48673828 27.79658203 11.48673828 27.79658203 10.26171875 28.41796875 C6.36902859 31.14083492 5.21517596 33.95403773 4.26953125 38.55078125 C4.11871094 39.79214844 3.96789062 41.03351563 3.8125 42.3125 C3.65394531 43.56675781 3.49539062 44.82101563 3.33203125 46.11328125 C3.22246094 47.06589844 3.11289063 48.01851562 3 49 C2.01 49 1.02 49 0 49 C0 32.83 0 16.66 0 0 Z " fill="#BED2D0" transform="translate(189,158)"/>
<path d="M0 0 C47.19 0 94.38 0 143 0 C143 1.98 143 3.96 143 6 C95.81 6 48.62 6 0 6 C0 4.02 0 2.04 0 0 Z " fill="#BBD0CF" transform="translate(187,240)"/>
<path d="M0 0 C3.0625 1.4375 3.0625 1.4375 5 4 C5.39854677 7.04678518 5.29353436 9.94724271 5 13 C4.34 13 3.68 13 3 13 C2.87625 14.093125 2.7525 15.18625 2.625 16.3125 C2 20 2 20 0 23 C0.66 23.33 1.32 23.66 2 24 C-0.20916462 26.04552279 -1.45961399 26.95947105 -4.5 27.1875 C-8.44960218 25.31143897 -9.3517162 21.87958501 -11 18 C-11.35964844 17.36835938 -11.71929687 16.73671875 -12.08984375 16.0859375 C-13.24054821 13.44870067 -13.33594399 11.30811702 -13.375 8.4375 C-13.40335938 7.48746094 -13.43171875 6.53742188 -13.4609375 5.55859375 C-13 3 -13 3 -11.25390625 1.1875 C-7.51753818 -0.78105441 -4.11192519 -0.62922699 0 0 Z " fill="#F4C2A1" transform="translate(214,160)"/>
<path d="M0 0 C44.22 0 88.44 0 134 0 C134 0.66 134 1.32 134 2 C105.62543254 2.95822817 77.27771014 3.12823072 48.88879395 3.06866455 C43.34904379 3.05820125 37.80928856 3.05381912 32.26953125 3.04882812 C21.51300823 3.03828956 10.75650663 3.021359 0 3 C0 2.01 0 1.02 0 0 Z " fill="#C8D8D4" transform="translate(195,286)"/>
<path d="M0 0 C3.0625 1.4375 3.0625 1.4375 5 4 C5.39854677 7.04678518 5.29353436 9.94724271 5 13 C4.34 13 3.68 13 3 13 C2.67 11.02 2.34 9.04 2 7 C-2.45264453 7.40478587 -4.96505903 9.23680054 -8.3515625 11.94140625 C-10 13 -10 13 -13 13 C-13.10824843 11.3973218 -13.18570645 9.79254252 -13.25 8.1875 C-13.29640625 7.29417969 -13.3428125 6.40085938 -13.390625 5.48046875 C-13 3 -13 3 -11.26171875 1.203125 C-7.52480253 -0.78473371 -4.12027499 -0.63050471 0 0 Z " fill="#141311" transform="translate(214,160)"/>
<path d="M0 0 C25.74 0 51.48 0 78 0 C78 0.66 78 1.32 78 2 C51.94747053 2.91401476 26.0509538 2.9829287 0 2 C0 1.34 0 0.68 0 0 Z " fill="#C6D5D1" transform="translate(251,332)"/>
<path d="M0 0 C1.9375 0.25 1.9375 0.25 4 1 C6.28259205 4.42388808 6.16215534 5.20194505 5.6875 9.125 C5.58824219 10.01445312 5.48898438 10.90390625 5.38671875 11.8203125 C5 14 5 14 4 15 C1.5625 15.1875 1.5625 15.1875 -1 15 C-3.84613268 12.15386732 -3.79864424 9.95999656 -4 6 C-2.86349056 3.62366207 -1.85558971 1.85558971 0 0 Z " fill="#FCBD9C" transform="translate(182,268)"/>
<path d="M0 0 C2.12534659 0.14069196 4.25027529 0.28770921 6.375 0.4375 C8.15003906 0.55931641 8.15003906 0.55931641 9.9609375 0.68359375 C13 1 13 1 15 2 C15 1.34 15 0.68 15 0 C19.95 0.33 24.9 0.66 30 1 C30 1.99 30 2.98 30 4 C20.1 4 10.2 4 0 4 C0 2.68 0 1.36 0 0 Z " fill="#E9F1EF" transform="translate(195,268)"/>
<path d="M0 0 C0.66 0 1.32 0 2 0 C2 7.59 2 15.18 2 23 C-0.42755736 20.57244264 -1.57545191 18.10810492 -3 15 C-3 14.34 -3 13.68 -3 13 C-4.65 13 -6.3 13 -8 13 C-8 12.34 -8 11.68 -8 11 C-6.68 11 -5.36 11 -4 11 C-3.69255859 9.93458984 -3.69255859 9.93458984 -3.37890625 8.84765625 C-3.10949219 7.92855469 -2.84007812 7.00945312 -2.5625 6.0625 C-2.29566406 5.14597656 -2.02882812 4.22945313 -1.75390625 3.28515625 C-1 1 -1 1 0 0 Z " fill="#E19777" transform="translate(160,292)"/>
<path d="M0 0 C10.23 0 20.46 0 31 0 C31 0.66 31 1.32 31 2 C28.12981559 3.43509221 25.66456277 3.11158506 22.4609375 3.09765625 C21.15898437 3.09443359 19.85703125 3.09121094 18.515625 3.08789062 C17.13541601 3.07953466 15.75520768 3.07106971 14.375 3.0625 C12.98698074 3.05748501 11.59895978 3.0529221 10.2109375 3.04882812 C6.80724868 3.03700976 3.40364561 3.02053434 0 3 C0 2.01 0 1.02 0 0 Z " fill="#D3E1DD" transform="translate(195,286)"/>
<path d="M0 0 C4.95 0.33 9.9 0.66 15 1 C15 1.99 15 2.98 15 4 C10.05 4 5.1 4 0 4 C0 2.68 0 1.36 0 0 Z " fill="#BACFCD" transform="translate(210,319)"/>
<path d="M0 0 C4.29 0.33 8.58 0.66 13 1 C13 1.99 13 2.98 13 4 C8.38 4 3.76 4 -1 4 C-0.67 2.68 -0.34 1.36 0 0 Z " fill="#B5CBC7" transform="translate(244,171)"/>
<path d="M0 0 C3.96 0.33 7.92 0.66 12 1 C12 1.99 12 2.98 12 4 C7.71 4 3.42 4 -1 4 C-0.67 2.68 -0.34 1.36 0 0 Z " fill="#B6CECA" transform="translate(196,319)"/>
<path d="M0 0 C2 0.9375 2 0.9375 4 3 C4.36475845 6.02534949 4.22893297 8.96663814 4 12 C3.34 12 2.68 12 2 12 C1.9175 11.05125 1.835 10.1025 1.75 9.125 C1.34925077 5.89538209 1.34925077 5.89538209 -1.0625 4.625 C-1.701875 4.41875 -2.34125 4.2125 -3 4 C-2.01 2.68 -1.02 1.36 0 0 Z " fill="#1E1E1B" transform="translate(215,161)"/>
<path d="M0 0 C3.96 0 7.92 0 12 0 C12 0.99 12 1.98 12 3 C7.71 3 3.42 3 -1 3 C-0.67 2.01 -0.34 1.02 0 0 Z " fill="#D3E0DE" transform="translate(266,195)"/>
<path d="M0 0 C5.61 0.33 11.22 0.66 17 1 C17 1.66 17 2.32 17 3 C11.39 3 5.78 3 0 3 C0 2.01 0 1.02 0 0 Z " fill="#B7CECB" transform="translate(259,172)"/>
<path d="M0 0 C2 1 2 1 2.62109375 2.765625 C3.02399618 5.14150323 3.09791478 7.34179517 3.0625 9.75 C3.05347656 10.54921875 3.04445312 11.3484375 3.03515625 12.171875 C3.01775391 13.07679688 3.01775391 13.07679688 3 14 C2.34 13.01 1.68 12.02 1 11 C0.34 10.67 -0.32 10.34 -1 10 C-0.67 6.7 -0.34 3.4 0 0 Z " fill="#F7AB85" transform="translate(187,272)"/>
<path d="M0 0 C4.95 0.33 9.9 0.66 15 1 C15 1.66 15 2.32 15 3 C10.05 3 5.1 3 0 3 C0 2.01 0 1.02 0 0 Z " fill="#AEC8C5" transform="translate(210,268)"/>
<path d="M0 0 C3.96 0.33 7.92 0.66 12 1 C12 1.66 12 2.32 12 3 C8.04 3 4.08 3 0 3 C0 2.01 0 1.02 0 0 Z " fill="#A7C6BF" transform="translate(196,268)"/>
</svg>
